<?xml version="1.0" encoding="iso-8859-1"?>
<!-- Generator: Adobe Illustrator 19.0.0, SVG Export Plug-In . SVG Version: 6.00 Build 0)  -->
<svg xmlns="http://www.w3.org/2000/svg" xmlns:xlink="http://www.w3.org/1999/xlink" version="1.1" id="Layer_1" x="0px" y="0px" viewBox="0 0 512 512" style="enable-background:new 0 0 512 512;" xml:space="preserve" width="512px" height="512px">
<g>
	<g>
		<path d="M450.021,495.831h-35.032V115.874c0-16.344-13.298-29.642-29.642-29.642h-13.474V72.758    c0-16.344-13.298-29.642-29.642-29.642h-56.589V18.863C285.642,8.463,277.18,0,266.779,0h-21.558    c-10.401,0-18.863,8.463-18.863,18.863v24.253h-56.589c-16.344,0-29.642,13.298-29.642,29.642v13.474h-13.474    c-16.344,0-29.642,13.298-29.642,29.642v379.957H61.979c-4.466,0-8.084,3.618-8.084,8.084c0,4.466,3.618,8.084,8.084,8.084h86.13    c0.073,0,0.149,0,0.222,0h150.785c4.466,0,8.084-3.618,8.084-8.084c0-4.466-3.618-8.084-8.084-8.084H157.302l12.478-106.065    l35.021,31.518v17.958c0,10.401,8.463,18.863,18.863,18.863h64.674c10.401,0,18.863-8.463,18.863-18.863v-17.958l35.021-31.518    l12.478,106.065h-23.246c-4.466,0-8.084,3.618-8.084,8.084c0,4.466,3.619,8.084,8.084,8.084h32.216    c0.037,0,0.073,0.001,0.111,0.001s0.074-0.001,0.112-0.001h86.129c4.466,0,8.084-3.618,8.084-8.084    C458.105,499.449,454.487,495.831,450.021,495.831z M242.526,18.863c0-1.486,1.208-2.695,2.695-2.695h21.558    c1.486,0,2.695,1.208,2.695,2.695v24.253h-26.947V18.863z M141.022,495.831h-27.843V338.824l41.879,37.692L141.022,495.831z     M398.821,495.831h-27.843l-14.035-119.314l41.878-37.692V495.831z M398.821,312.588H210.189V137.432    c0-4.466-3.618-8.084-8.084-8.084c-4.466,0-8.084,3.619-8.084,8.084v175.158h-2.695c-4.466,0-8.084,3.618-8.084,8.084    c0,4.466,3.618,8.084,8.084,8.084h194.512L296.014,409.6h-50.793c-4.466,0-8.084,3.619-8.084,8.084s3.618,8.084,8.084,8.084h45.81    v13.474c0,1.486-1.208,2.695-2.695,2.695h-64.674c-1.486,0-2.695-1.208-2.695-2.695v-21.558c0-2.292-0.972-4.475-2.675-6.008    l-92.131-82.918h32.827c4.466,0,8.084-3.618,8.084-8.084c0-4.466-3.618-8.084-8.084-8.084h-45.811V115.874    c0-7.43,6.044-13.474,13.474-13.474h13.474v175.158c0,4.466,3.618,8.084,8.084,8.084c4.466,0,8.084-3.618,8.084-8.084V102.4    h35.032c4.466,0,8.084-3.619,8.084-8.084s-3.618-8.084-8.084-8.084h-35.032V72.758c0-7.43,6.044-13.474,13.474-13.474h172.463    c7.43,0,13.474,6.044,13.474,13.474v13.474H223.663c-4.466,0-8.084,3.619-8.084,8.084s3.618,8.084,8.084,8.084h161.684    c7.43,0,13.474,6.044,13.474,13.474V312.588z" fill="#758a7e"/>
	</g>
</g>
<g>
</g>
<g>
</g>
<g>
</g>
<g>
</g>
<g>
</g>
<g>
</g>
<g>
</g>
<g>
</g>
<g>
</g>
<g>
</g>
<g>
</g>
<g>
</g>
<g>
</g>
<g>
</g>
<g>
</g>
</svg>
