<?xml version="1.0" encoding="iso-8859-1"?>
<!-- Generator: Adobe Illustrator 19.0.0, SVG Export Plug-In . SVG Version: 6.00 Build 0)  -->
<svg xmlns="http://www.w3.org/2000/svg" xmlns:xlink="http://www.w3.org/1999/xlink" version="1.1" id="Layer_1" x="0px" y="0px" viewBox="0 0 512 512" style="enable-background:new 0 0 512 512;" xml:space="preserve" width="512px" height="512px">
<g>
	<g>
		<path d="M503.916,495.832h-13.474V460.8c0-7.51-4.412-14.009-10.779-17.042V191.326c0-4.465-3.618-8.084-8.084-8.084    c-4.466,0-8.084,3.62-8.084,8.084v13.934c-0.843-0.297-1.749-0.46-2.695-0.46h-24.253v-6.287c0-8.132-5.184-15.323-12.898-17.895    l-51.776-17.259v-25.927c0-10.401-8.463-18.863-18.863-18.863h-13.474V29.642C339.537,13.297,326.239,0,309.895,0H158.989    c-16.344,0-29.642,13.297-29.642,29.642v2.695h-13.474c-10.401,0-18.863,8.463-18.863,18.863v26.51L45.235,94.968    c-7.714,2.572-12.898,9.764-12.898,17.896v330.894c-6.367,3.032-10.779,9.532-10.779,17.042v35.032H8.084    c-4.466,0-8.084,3.62-8.084,8.084C0,508.38,3.619,512,8.084,512h64.674c4.466,0,8.084-3.62,8.084-8.084    c0-4.465-3.618-8.084-8.084-8.084H37.726V460.8c0-1.485,1.208-2.695,2.695-2.695h323.368c4.466,0,8.084-3.62,8.084-8.084    c0-4.465-3.618-8.084-8.084-8.084h-78.147V277.558c0-4.465-3.618-8.084-8.084-8.084c-4.466,0-8.084,3.62-8.084,8.084v164.379    h-26.947V277.558c0-4.465-3.618-8.084-8.084-8.084c-4.466,0-8.084,3.62-8.084,8.084v164.379H91.621V191.326    c0-4.465-3.619-8.084-8.084-8.084s-8.084,3.62-8.084,8.084v250.611H48.505V112.864c0-1.162,0.741-2.189,1.843-2.557l57.132-19.043    c0.115-0.037,0.231-0.074,0.345-0.115l28.756-9.586c0.548-0.183,1.152-0.182,1.702,0l28.755,9.585    c0.113,0.042,0.23,0.08,0.346,0.115l57.131,19.043c1.103,0.368,1.843,1.395,1.843,2.557v5.705h-153.6    c-4.466,0-8.084,3.62-8.084,8.084c0,4.465,3.618,8.084,8.084,8.084h153.6v110.484c0,4.465,3.618,8.084,8.084,8.084    c4.466,0,8.084-3.62,8.084-8.084v-46.708c0-1.162,0.741-2.189,1.843-2.557l86.231-28.744c0.55-0.183,1.157-0.183,1.704,0    l86.232,28.744c1.103,0.368,1.843,1.395,1.843,2.557v6.287h-153.6c-4.466,0-8.084,3.62-8.084,8.084s3.618,8.084,8.084,8.084h153.6    v220.968h-24.253c-4.466,0-8.084,3.62-8.084,8.084c0,4.465,3.618,8.084,8.084,8.084h75.453c1.486,0,2.695,1.209,2.695,2.695    v35.032H105.095c-4.466,0-8.084,3.62-8.084,8.084c0,4.465,3.618,8.084,8.084,8.084h398.821c4.466,0,8.084-3.62,8.084-8.084    C512,499.451,508.382,495.832,503.916,495.832z M161.684,72.32l-18.286-6.096c-3.848-1.283-8.085-1.283-11.931,0l-18.288,6.096    V51.2c0-1.485,1.208-2.695,2.695-2.695h43.116c1.486,0,2.695,1.209,2.695,2.695V72.32z M291.032,137.432v25.927l-48.505,16.168    v-66.664c0-8.132-5.184-15.323-12.898-17.895L177.853,77.71V51.2c0-10.401-8.463-18.863-18.863-18.863h-13.474v-2.695    c0-7.43,6.044-13.474,13.474-13.474h150.905c7.43,0,13.474,6.044,13.474,13.474v88.926h-13.474    C299.494,118.568,291.032,127.031,291.032,137.432z M355.705,157.969l-18.289-6.095c-1.923-0.641-3.943-0.961-5.964-0.961    s-4.041,0.32-5.965,0.961l-18.288,6.095v-20.537c0-1.485,1.208-2.695,2.695-2.695h43.116c1.486,0,2.695,1.209,2.695,2.695V157.969    z M463.495,441.937h-26.947v-48.505H460.8c0.945,0,1.852-0.162,2.695-0.46V441.937z M463.495,377.723    c-0.843-0.297-1.749-0.46-2.695-0.46h-24.253v-26.947h26.947V377.723z M463.495,334.147h-26.947V307.2h26.947V334.147z     M463.495,291.032h-26.947v-26.947h26.947V291.032z M463.495,247.916h-26.947v-26.947H460.8c0.945,0,1.852-0.162,2.695-0.46    V247.916z" fill="#758a7e"/>
	</g>
</g>
<g>
</g>
<g>
</g>
<g>
</g>
<g>
</g>
<g>
</g>
<g>
</g>
<g>
</g>
<g>
</g>
<g>
</g>
<g>
</g>
<g>
</g>
<g>
</g>
<g>
</g>
<g>
</g>
<g>
</g>
</svg>
